<svg xmlns="http://www.w3.org/2000/svg" width="256" height="256"><path fill-opacity=".016" d="M0 128.004v128.004l128.25-.254 128.25-.254.254-127.75L257.008 0H0v128.004m.485.496c0 70.4.119 99.053.265 63.672.146-35.38.146-92.98 0-128C.604 29.153.485 58.1.485 128.5" fill="#1976D2" fill-rule="evenodd"/><path fill-opacity=".135" d="M105.555 1.614C79.772 6.268 56.411 18.586 37.499 37.499 22.427 52.57 13.101 67.558 6.492 87.329 1.868 101.16 0 112.862 0 128c0 35.017 12.725 65.727 37.499 90.501 19.21 19.211 42.485 31.359 68.882 35.953 11.381 1.981 31.857 1.981 43.238 0 10.471-1.822 26.657-7.063 35.552-11.51 23.661-11.831 45.942-34.112 57.773-57.773 4.207-8.414 9.667-24.993 11.088-33.671.631-3.85 1.557-7.781 2.058-8.736 1.065-2.032 1.253-31.441.194-30.381-.394.393-1.305-2.769-2.024-7.029-4.22-24.986-16.844-48.941-35.759-67.855-19.21-19.211-42.485-31.359-68.882-35.953-11.044-1.923-33.229-1.888-44.064.068M66.202 56.636l.298 6.813 8.25 1.422L83 66.292v61.787c0 69.251.85 62.07-7.5 63.368-10.208 1.586-9.5.975-9.5 8.198v6.487l43.75-.392c47.451-.425 48.361-.522 59.887-6.354 6.631-3.355 14.716-11.712 17.409-17.994 5.07-11.826 4.659-27.09-1.031-38.362-3.894-7.714-12.427-15.427-19.553-17.673-3.004-.947-5.462-2-5.462-2.339 0-.339 1.548-1.176 3.44-1.86 4.659-1.685 13.008-9.363 16.336-15.024 2.52-4.288 2.724-5.458 2.724-15.656 0-10.444-.173-11.374-3.292-17.708-3.702-7.518-8.875-12.521-16.847-16.292-11.307-5.349-14.836-5.729-57.659-6.209l-39.797-.446.297 6.813m37.293 10.517c-.293.763-.411 12.178-.264 25.367l.269 23.98 18.916.273c23.532.339 27.822-.615 34.7-7.72 5.37-5.547 7.47-12.087 6.597-20.542-1.025-9.936-6.204-16.543-15.782-20.133-6.164-2.31-43.624-3.343-44.436-1.225M.402 128c0 8.525.154 12.012.341 7.75.188-4.262.188-11.237 0-15.5-.187-4.263-.341-.775-.341 7.75m102.832 33.25.266 28.25 21.424.27c26.494.335 29.838-.386 37.491-8.086 5.922-5.958 7.585-10.314 7.585-19.869 0-9.947-2.358-16.503-7.855-21.834-6.704-6.503-9.173-6.981-36.027-6.981h-23.149l.265 28.25" fill="#1976D2" fill-rule="evenodd"/><path fill-opacity=".433" d="M114 .623C58.012 7.75 14.287 47.862 2.401 103c-2.562 11.885-2.562 38.115 0 50C13.435 204.185 51.815 242.565 103 253.599c11.885 2.562 38.115 2.562 50 0 50.515-10.89 88.957-48.77 100.062-98.599 1.042-4.675 1.904-10.161 1.916-12.191.012-2.03.472-3.969 1.022-4.309.569-.351 1-5.363 1-11.618 0-7.079-.356-10.78-1-10.382-.599.37-1.009-.911-1.022-3.191-.012-2.095-.874-7.634-1.916-12.309C242.105 51.832 204.458 14.169 155 2.894 146.652.991 121.887-.381 114 .623M65 56.801v6.938l8.75 1.387 8.75 1.387.258 61.652.257 61.652-7.257 1.166C64.303 192.823 65 192.267 65 199.567V206l42.75-.015c47.743-.016 50.331-.291 62.388-6.627 8.26-4.341 13.045-9.408 17.215-18.235 2.941-6.223 3.13-7.32 3.138-18.173.009-11.35-.056-11.681-3.763-19.184-2.46-4.979-5.342-9.017-8.284-11.606-4.556-4.01-12.15-8.16-14.933-8.16-2.718 0-1.569-1.462 2.75-3.5 5.606-2.645 13.396-10.47 15.773-15.844 2.852-6.446 3.383-14.007 1.584-22.515-3.206-15.163-11.929-23.917-29.618-29.723-4.861-1.596-10.348-1.849-47.25-2.18L65 49.863v6.938M104 91.5V116l20.75-.01c19.833-.009 20.979-.116 25.94-2.426 14.506-6.754 17.46-28.969 5.311-39.944-6.152-5.558-11.473-6.62-33.183-6.62H104v24.5M.378 128c0 6.325.163 8.912.361 5.75.198-3.163.198-8.338 0-11.5-.198-3.163-.361-.575-.361 5.75M104 161.595v28.595l22.823-.345 22.823-.345 5.884-3.01c7.458-3.816 11.908-9.468 13.503-17.151 2.393-11.523-1.487-25.533-8.566-30.932-6.112-4.662-10.885-5.407-34.626-5.407H104v28.595" fill="#1976D2" fill-rule="evenodd"/><path fill-opacity=".545" d="M115.265.972C58.709 7.383 14.59 47.541 2.881 103.266c-3 14.276-3 35.192 0 49.468 9.453 44.987 39.981 80.207 82.885 95.624 26.059 9.363 58.409 9.363 84.468 0 42.78-15.373 73.728-51.007 82.75-95.281 1.109-5.44 2.016-11.931 2.016-14.425 0-2.494.45-4.812 1-5.152.55-.34 1-3.318 1-6.618 0-3.745-.376-5.768-1-5.382-.612.378-1-1.187-1-4.034 0-2.558-.907-9.103-2.016-14.543-10.305-50.571-49.425-89.729-99.75-99.849C141.643.743 125.278-.163 115.265.972M65 56.921c0 7.724-.755 7.039 9.5 8.632 8.349 1.297 7.5-5.819 7.5 62.853v61.272L73.5 191l-8.5 1.322v14.826l43.75-.393c37.527-.337 44.592-.637 49.669-2.105 13.719-3.969 24.19-12.314 29.401-23.432 2.459-5.246 2.68-6.75 2.68-18.218 0-11.486-.219-12.967-2.696-18.253-3.782-8.07-11.472-15.876-18.944-19.229l-6.084-2.731 4.362-2.46c14.709-8.296 20.813-23.261 16.444-40.314-3.806-14.857-13.454-23.505-31.323-28.075C145.383 50.18 140.985 50 104.84 50H65v6.921m39 34.49V116h19.057c10.587 0 21.006-.491 23.442-1.104 5.509-1.387 12.21-7.045 14.615-12.34 2.116-4.659 2.489-14.457.748-19.657-1.922-5.741-5.839-9.996-11.755-12.77-5.377-2.521-6.436-2.643-25.857-2.968L104 66.822v24.589M.32 128c0 3.575.182 5.037.403 3.25.222-1.787.222-4.713 0-6.5-.221-1.787-.403-.325-.403 3.25M104 160.972v28.159l23.75-.316 23.75-.315 5.5-3.106c3.829-2.163 6.411-4.57 8.5-7.925 2.863-4.599 3-5.325 2.999-15.894-.002-12.174-1.343-16.254-7.157-21.772-5.945-5.642-8.791-6.193-34.092-6.609l-23.25-.381v28.159" fill="#1976D2" fill-rule="evenodd"/></svg>